PathFileType	4	(X/Y/Z)	 s09c0001.trc
DataRate	CameraRate	NumFrames	NumMarkers	Units	OrigDataRate	OrigDataStartFrame	OrigNumFrames
200	200	4	49	mm	200	751	2000
Frame#	Time	racr			lacr			c7			jug			rlel			rdr			llel			ldr			s2			lic			ric			lasi			rasi			rpsi			lpsi			rgt			lgt			rth1			rth2			rth3			rth4			rlfc			rmfc			rsh1			rsh2			rsh3			rsh4			rlmal			rmmal			rcal			rtoe			rmt5			rmt1			lth1			lth2			lth4			lth3			llfc			lmfc			llmal			lmmal			lcal			lmt1			lmt5			lsh1			lsh2			lsh3			lsh4			ltoe			
		X1	Y1	Z1	X2	Y2	Z2	X3	Y3	Z3	X4	Y4	Z4	X5	Y5	Z5	X6	Y6	Z6	X7	Y7	Z7	X8	Y8	Z8	X9	Y9	Z9	X10	Y10	Z10	X11	Y11	Z11	X12	Y12	Z12	X13	Y13	Z13	X14	Y14	Z14	X15	Y15	Z15	X16	Y16	Z16	X17	Y17	Z17	X18	Y18	Z18	X19	Y19	Z19	X20	Y20	Z20	X21	Y21	Z21	X22	Y22	Z22	X23	Y23	Z23	X24	Y24	Z24	X25	Y25	Z25	X26	Y26	Z26	X27	Y27	Z27	X28	Y28	Z28	X29	Y29	Z29	X30	Y30	Z30	X31	Y31	Z31	X32	Y32	Z32	X33	Y33	Z33	X34	Y34	Z34	X35	Y35	Z35	X36	Y36	Z36	X37	Y37	Z37	X38	Y38	Z38	X39	Y39	Z39	X40	Y40	Z40	X41	Y41	Z41	X42	Y42	Z42	X43	Y43	Z43	X44	Y44	Z44	X45	Y45	Z45	X46	Y46	Z46	X47	Y47	Z47	X48	Y48	Z48	X49	Y49	Z49	
751	3.7550	284.510893	1353.399287	382.454842	286.886141	1337.493663	-10.682667	232.516832	1402.847601	182.870948	356.739097	1351.880722	181.824526	298.316823	1092.823595	448.496404	362.366455	878.724545	578.342396	275.287517	1053.395832	-46.936662	399.857753	898.205896	-195.168093	217.260358	943.921812	189.206716	353.755490	991.339983	48.697822	341.417638	1002.868861	337.871740	411.125486	955.121134	80.104082	401.055787	965.963381	319.147404	226.363197	979.202046	244.454213	226.881455	975.433927	133.661660	326.456130	846.913090	386.210456	331.305870	837.059565	10.522306	349.371219	716.197861	382.075426	364.834654	630.784602	368.489615	332.792949	548.360437	358.951067	395.433643	629.283179	348.702472	319.191881	450.994551	335.172739	301.892234	431.049879	237.127531	278.335153	361.184271	368.303810	302.390240	274.057039	359.819437	279.325494	189.321503	361.376159	328.037692	276.917471	329.795667	276.776350	86.710185	360.352380	286.133785	93.540756	283.867338	219.181817	32.050918	318.050496	471.897614	86.204620	354.465445	388.217147	49.226656	407.132171	401.007934	39.252126	297.143208	341.311315	710.712643	9.419480	356.063372	629.365826	26.000395	391.705077	627.217951	39.827023	327.558341	543.728824	35.001569	309.581971	449.090881	47.337969	318.275083	429.048538	140.259487	268.657169	85.029530	21.838417	291.198743	96.166347	92.532516	218.701611	26.727547	68.118434	406.306575	43.957949	87.242766	381.435509	33.806725	-18.423715	278.515114	355.225344	17.658458	296.271704	270.397837	21.455224	274.600341	198.422871	14.864173	323.341287	270.747858	50.498395	472.681996	79.278884	36.664229	
752	3.7600	284.526982	1353.405645	382.449461	286.897606	1337.503130	-10.696692	232.506576	1402.855420	182.872543	356.760874	1351.887190	181.815202	298.301601	1092.834233	448.509991	362.357889	878.722159	578.343162	275.281568	1053.410414	-46.933006	399.850022	898.210039	-195.161371	217.233803	943.940814	189.209347	353.756768	991.346611	48.708459	341.414044	1002.870744	337.870906	411.117167	955.125836	80.131137	401.039289	965.955703	319.149580	226.341926	979.223312	244.462642	226.858765	975.433114	133.674024	326.440934	846.922626	386.215861	331.312193	837.054740	10.520174	349.364518	716.214503	382.077716	364.820346	630.796295	368.498022	332.778969	548.344053	358.968894	395.410910	629.285911	348.720761	319.193991	451.004767	335.169507	301.890621	431.052552	237.132643	278.337418	361.181788	368.321226	302.387689	274.082020	359.841592	279.321012	189.304387	361.383974	327.999474	276.893241	329.794264	276.794184	86.693621	360.355627	286.144878	93.544801	283.868144	219.179367	32.053998	318.046026	471.907517	86.211822	354.465407	388.207688	49.221423	407.116710	401.020266	39.243738	297.139379	341.295874	710.697227	9.427334	356.022191	629.377589	25.984955	391.686600	627.221573	39.837960	327.532331	543.738751	34.999432	309.543516	449.080489	47.333768	318.279005	429.037182	140.262056	268.662618	85.006197	21.832730	291.227484	96.177189	92.530730	218.712951	26.717056	68.112463	406.309036	43.944000	87.234604	381.435622	33.807189	-18.425177	278.490246	355.222624	17.666728	296.301687	270.412647	21.467239	274.661742	198.415889	14.820435	323.333712	270.735997	50.512777	472.696116	79.266910	36.671070	
753	3.7650	284.540918	1353.420922	382.456983	286.903441	1337.504207	-10.694760	232.532419	1402.861686	182.876210	356.769263	1351.895550	181.826733	298.316505	1092.854197	448.530614	362.352789	878.737638	578.360490	275.293514	1053.405876	-46.940996	399.862174	898.200971	-195.158834	217.208255	943.968386	189.230982	353.727098	991.347618	48.713202	341.392387	1002.876487	337.888347	411.127144	955.117822	80.146435	401.041248	965.965945	319.166841	226.340468	979.211868	244.472127	226.836016	975.424036	133.685299	326.452407	846.918926	386.225388	331.133244	836.955002	11.073032	349.365887	716.210276	382.082435	364.817668	630.798082	368.505277	332.783078	548.347689	358.959314	395.430072	629.294895	348.723098	319.190982	451.014892	335.172625	301.891827	431.060433	237.139845	278.330238	361.188563	368.309368	302.383889	274.080934	359.852810	279.312630	189.315273	361.389061	328.010470	276.889942	329.793591	276.777398	86.704491	360.354756	286.164890	93.536173	283.885015	219.181624	32.061055	318.046328	471.979717	86.018512	354.351109	388.173319	49.228645	407.106565	400.995546	39.260463	297.147130	341.284446	710.705643	9.435652	356.030859	629.369397	26.008676	391.670991	627.221003	39.839957	327.513959	543.723325	35.005630	309.543182	449.088211	47.338445	318.257737	429.048902	140.269148	268.653132	85.016891	21.843913	291.223956	96.166404	92.531551	218.714323	26.724279	68.110981	406.303804	43.943173	87.244269	381.435622	33.807188	-18.425175	278.475981	355.227740	17.679044	296.319885	270.436549	21.445537	274.805962	198.384454	14.536765	323.257398	270.570470	50.765040	472.670044	79.270172	36.664136	
754	3.7700	284.555334	1353.427468	382.463637	286.916083	1337.511916	-10.698992	232.552989	1402.865605	182.830777	356.801441	1351.902991	181.817816	298.308676	1092.863140	448.531185	362.349606	878.749423	578.378779	275.296311	1053.412903	-46.943450	399.859246	898.196437	-195.156573	217.029700	943.912890	189.053153	353.721492	991.351641	48.710238	341.386801	1002.888886	337.893634	411.112067	955.117394	80.128673	401.033175	965.970484	319.164156	226.347350	979.219124	244.472492	226.843200	975.424717	133.689221	326.434451	846.919271	386.232508	331.112319	836.972044	11.098435	349.354128	716.191118	382.090199	364.819627	630.798217	368.498181	332.795227	548.337238	358.971720	395.422988	629.283747	348.734431	319.186198	451.008446	335.177798	301.880373	431.059404	237.140883	278.341648	361.190738	368.324185	302.397576	274.071330	359.844293	279.312883	189.304625	361.382149	328.059916	276.903224	329.820431	276.791045	86.702459	360.361499	286.148769	93.538571	283.874670	219.183578	32.044067	318.057074	471.977151	86.020675	354.356513	388.192160	49.213811	407.100763	401.010052	39.250259	297.144144	341.262479	710.701103	9.442383	356.020756	629.362319	26.028053	391.663484	627.224428	39.864153	327.504403	543.704515	35.030758	309.542897	449.088822	47.338442	318.241626	429.040359	140.266054	268.653237	85.016790	21.840469	291.227575	96.164872	92.541215	218.699952	26.738379	68.120949	406.315405	43.942754	87.234020	381.458217	33.820617	-18.427487	278.469164	355.211324	17.667374	296.304098	270.408595	21.457368	274.702110	198.405914	14.781435	323.319593	270.739796	50.534656	472.678021	79.247083	36.666584	
